<svg xmlns="http://www.w3.org/2000/svg" width="1200" height="320" viewBox="0 0 1200 320" role="img" aria-labelledby="title desc"><title id="title">helox</title><desc id="desc">Bold italic helox lettering in white on a plain charcoal background. Mouse controls for Windows. Lettering is vector outlines for consistent rendering.</desc>
<rect width="1200" height="320" fill="#0b0b0b"/><path d="M64 272H1136" stroke="#292929"/>
<path fill="#f2f2ee" d="M100.22 65L143.94 65L130.6 123.01C137.96 116.85 144.88 112.44 151.36 109.79C157.84 107.15 165.1 105.82 173.12 105.82C185.01 105.82 193.54 109.44 198.71 116.67C203.89 123.9 204.75 135 201.31 149.97L184.63 222.48L140.7 222.48L155.13 159.75C156.78 152.58 156.62 147.52 154.65 144.55C152.68 141.57 149.3 140.09 144.5 140.09C139.2 140.09 134.45 142.09 130.23 146.1C126.01 150.11 122.71 157.31 120.32 167.7L107.72 222.48L64 222.48ZM348.01 176.29L260.36 176.29C259.53 183.31 260.23 188.54 262.44 191.97C265.53 196.91 270.48 199.38 277.28 199.38C281.58 199.38 285.91 198.31 290.27 196.16C292.94 194.8 296.04 192.4 299.55 188.96L341.71 192.94C332.49 204.4 322.65 212.62 312.19 217.59C301.74 222.57 287.81 225.06 270.41 225.06C255.3 225.06 243.9 222.93 236.22 218.67C228.53 214.41 222.91 207.64 219.35 198.36C215.79 189.09 215.45 178.19 218.33 165.65C222.43 147.82 231.46 133.39 245.42 122.36C259.38 111.33 276.42 105.82 296.54 105.82C312.87 105.82 325.2 108.29 333.51 113.23C341.83 118.17 347.38 125.34 350.16 134.72C352.95 144.1 352.61 156.31 349.15 171.35ZM308.36 155.34C309.44 146.89 308.56 140.84 305.71 137.19C302.86 133.54 298.43 131.71 292.42 131.71C285.47 131.71 279.29 134.47 273.86 139.98C270.42 143.42 267.56 148.54 265.28 155.34ZM395.2 65L439.03 65L402.81 222.48L358.98 222.48ZM438.41 165.76C442.42 148.36 451.59 134.02 465.92 122.74C480.26 111.46 497.42 105.82 517.4 105.82C540.25 105.82 555.98 112.44 564.61 125.69C571.54 136.36 573.21 149.51 569.62 165.12C565.58 182.66 556.45 197.04 542.24 208.25C528.02 219.45 510.64 225.06 490.09 225.06C471.75 225.06 458 220.4 448.83 211.09C437.58 199.56 434.11 184.45 438.41 165.76ZM482.27 165.65C479.93 175.82 480.26 183.34 483.25 188.21C486.25 193.08 490.87 195.52 497.1 195.52C503.4 195.52 509.12 193.12 514.27 188.32C519.42 183.52 523.22 175.82 525.66 165.22C527.93 155.34 527.58 147.98 524.61 143.15C521.64 138.32 517.15 135.9 511.13 135.9C504.76 135.9 498.93 138.35 493.65 143.26C488.37 148.16 484.57 155.63 482.27 165.65ZM586.21 108.4L638.09 108.4L648.88 140.2L677.3 108.4L725.53 108.4L674.11 162.75L702.09 222.48L651.06 222.48L638.4 185.74L605.19 222.48L557.82 222.48L612.99 162.75Z"/>
<path fill="#f2f2ee" d="M850.21 170.11L850.21 161.41C850.21 160.62 849.91 160.23 849.33 160.23C848.58 160.23 848.21 160.75 848.21 161.78L847.44 160.14L848.32 160.14C848.35 159.7 848.53 159.32 848.85 159C849.17 158.67 849.63 158.51 850.23 158.51C851.02 158.51 851.59 158.72 851.95 159.15C852.31 159.57 852.48 160.25 852.48 161.2L852.48 170.11ZM842 170.11L842 158.73L844.02 158.73L844.28 161.13L844.28 170.11ZM846.28 170.11L846.28 161.2C846.28 160.55 845.97 160.23 845.37 160.23C844.64 160.23 844.28 160.75 844.28 161.78L843.61 160.14L844.34 160.14C844.43 159.06 845.08 158.51 846.3 158.51C846.89 158.51 847.36 158.72 847.7 159.12C848.04 159.53 848.21 160.15 848.21 160.98L848.21 170.11ZM860.13 170.33C858.56 170.33 857.33 169.81 856.46 168.78C855.59 167.75 855.15 166.3 855.15 164.42C855.15 162.54 855.59 161.08 856.46 160.05C857.33 159.03 858.56 158.51 860.13 158.51C861.72 158.51 862.94 159.03 863.81 160.05C864.68 161.08 865.12 162.54 865.12 164.42C865.12 166.3 864.68 167.75 863.81 168.78C862.94 169.81 861.72 170.33 860.13 170.33ZM860.13 168.29C860.97 168.29 861.62 167.95 862.07 167.28C862.53 166.6 862.75 165.65 862.75 164.42C862.75 163.18 862.53 162.23 862.07 161.56C861.62 160.89 860.97 160.55 860.13 160.55C859.29 160.55 858.65 160.89 858.19 161.56C857.74 162.23 857.51 163.18 857.51 164.42C857.51 165.65 857.74 166.6 858.19 167.28C858.65 167.95 859.29 168.29 860.13 168.29ZM871.91 170.33C870.71 170.33 869.78 169.97 869.13 169.26C868.47 168.55 868.15 167.54 868.15 166.25L868.15 158.73L870.42 158.73L870.42 166.25C870.42 166.9 870.61 167.4 870.98 167.76C871.35 168.11 871.88 168.29 872.55 168.29C873.38 168.29 874.01 168.02 874.43 167.5C874.85 166.97 875.06 166.09 875.06 164.85L875.64 167.92L874.89 167.92C874.71 168.7 874.36 169.29 873.84 169.71C873.32 170.12 872.67 170.33 871.91 170.33ZM875.26 170.22L875.06 167.49L875.06 165.49L877.34 165.49L877.34 168.05L878.91 168.29L878.91 170.11ZM875.06 166.89L875.06 158.73L877.34 158.73L877.34 166.25ZM885.03 170.33C884.17 170.33 883.44 170.3 882.83 170.25C882.21 170.2 881.65 170.12 881.14 170.01L881.4 167.94C882.15 168.06 882.82 168.14 883.4 168.2C883.97 168.26 884.52 168.29 885.03 168.29C886.19 168.29 887.02 168.17 887.54 167.95C888.06 167.72 888.32 167.36 888.32 166.87C888.32 166.53 888.23 166.27 888.05 166.1C887.86 165.93 887.58 165.8 887.2 165.71L884.58 165.04C883.46 164.76 882.63 164.4 882.11 163.98C881.58 163.56 881.32 162.92 881.32 162.06C881.32 160.81 881.79 159.91 882.75 159.35C883.71 158.79 885.25 158.51 887.38 158.51C887.93 158.51 888.44 158.53 888.92 158.56C889.39 158.59 889.88 158.65 890.38 158.73L890.15 160.7C889.57 160.65 889.05 160.61 888.61 160.59C888.17 160.56 887.73 160.55 887.31 160.55C886.04 160.55 885.11 160.66 884.54 160.88C883.97 161.1 883.68 161.46 883.68 161.95C883.68 162.28 883.8 162.52 884.03 162.66C884.27 162.81 884.63 162.94 885.12 163.07L887.22 163.58C888.42 163.87 889.3 164.25 889.85 164.73C890.41 165.21 890.68 165.91 890.68 166.83C890.68 168.05 890.24 168.94 889.34 169.5C888.45 170.05 887.01 170.33 885.03 170.33ZM899.79 170.33C897.85 170.33 896.35 169.82 895.3 168.8C894.24 167.78 893.71 166.31 893.71 164.4C893.71 162.54 894.16 161.09 895.06 160.06C895.95 159.03 897.21 158.51 898.85 158.51C900.39 158.51 901.58 158.98 902.42 159.91C903.26 160.84 903.68 162.19 903.68 163.97C903.68 164.49 903.66 164.98 903.62 165.43L895.63 165.43L895.63 163.69L901.62 163.69C901.62 162.67 901.38 161.88 900.89 161.33C900.4 160.78 899.73 160.51 898.87 160.51C897.9 160.51 897.15 160.84 896.62 161.5C896.09 162.16 895.82 163.09 895.82 164.29C895.82 165.61 896.19 166.61 896.92 167.3C897.65 167.99 898.7 168.33 900.05 168.33C900.52 168.33 900.99 168.3 901.45 168.25C901.91 168.2 902.37 168.12 902.84 168.03L903.12 170.03C902.45 170.16 901.83 170.24 901.28 170.27C900.72 170.31 900.22 170.33 899.79 170.33ZM925.68 170.33C923.74 170.33 922.24 169.82 921.19 168.8C920.13 167.78 919.6 166.31 919.6 164.4C919.6 162.54 920.1 161.09 921.1 160.06C922.1 159.03 923.53 158.51 925.38 158.51C926.49 158.51 927.44 158.72 928.23 159.13C929.02 159.54 929.59 160.12 929.92 160.88L928.17 162.2C927.85 161.67 927.44 161.27 926.94 160.98C926.44 160.7 925.89 160.55 925.29 160.55C924.22 160.55 923.39 160.88 922.79 161.52C922.2 162.17 921.9 163.1 921.9 164.29C921.9 165.59 922.25 166.58 922.95 167.26C923.65 167.95 924.64 168.29 925.94 168.29C926.47 168.29 927 168.26 927.53 168.21C928.06 168.16 928.57 168.09 929.08 168.01L929.33 170.01C928.75 170.13 928.14 170.22 927.51 170.26C926.89 170.31 926.28 170.33 925.68 170.33ZM937.48 170.33C935.9 170.33 934.68 169.81 933.8 168.78C932.93 167.75 932.49 166.3 932.49 164.42C932.49 162.54 932.93 161.08 933.8 160.05C934.68 159.03 935.9 158.51 937.48 158.51C939.06 158.51 940.29 159.03 941.16 160.05C942.03 161.08 942.46 162.54 942.46 164.42C942.46 166.3 942.03 167.75 941.16 168.78C940.29 169.81 939.06 170.33 937.48 170.33ZM937.48 168.29C938.31 168.29 938.96 167.95 939.42 167.28C939.87 166.6 940.1 165.65 940.1 164.42C940.1 163.18 939.87 162.23 939.42 161.56C938.96 160.89 938.31 160.55 937.48 160.55C936.64 160.55 935.99 160.89 935.54 161.56C935.08 162.23 934.86 163.18 934.86 164.42C934.86 165.65 935.08 166.6 935.54 167.28C935.99 167.95 936.64 168.29 937.48 168.29ZM952.73 170.11L952.73 162.7C952.73 162.01 952.55 161.48 952.19 161.11C951.84 160.74 951.33 160.55 950.69 160.55C948.9 160.55 948 161.61 948 163.71L947.34 160.79L948.22 160.79C948.28 160.02 948.56 159.45 949.06 159.08C949.55 158.7 950.27 158.51 951.23 158.51C952.43 158.51 953.36 158.88 954.02 159.61C954.68 160.34 955.01 161.37 955.01 162.7L955.01 170.11ZM945.73 170.11L945.73 158.73L947.79 158.73L948 161.13L948 170.11ZM965.32 170.33C963.59 170.33 962.35 169.97 961.58 169.25C960.81 168.54 960.42 167.39 960.42 165.82L960.42 163.88L962.7 163.88L962.7 165.71C962.7 166.61 962.92 167.27 963.36 167.67C963.8 168.08 964.53 168.29 965.54 168.29C965.89 168.29 966.27 168.27 966.67 168.23C967.07 168.19 967.53 168.14 968.05 168.07L968.31 170.07C967.81 170.16 967.32 170.22 966.84 170.26C966.36 170.31 965.86 170.33 965.32 170.33ZM960.42 164.74L960.42 155.29L962.7 155.29L962.7 164.74ZM957.56 160.72L957.56 158.73L967.88 158.73L967.88 160.72ZM975.38 165.21L974.71 161.65L975.59 161.65C975.72 159.56 976.76 158.51 978.73 158.51C979.9 158.51 980.75 158.85 981.28 159.52C981.81 160.19 982.08 161.28 982.08 162.79L979.82 162.79C979.82 161.96 979.7 161.36 979.45 160.99C979.2 160.63 978.81 160.45 978.25 160.45C977.29 160.45 976.57 160.86 976.09 161.69C975.61 162.51 975.38 163.69 975.38 165.21ZM970.56 170.11L970.56 168.12L978.17 168.12L978.17 170.11ZM973.1 170.11L973.1 158.73L974.95 158.73L975.38 161.99L975.38 170.11ZM970.99 160.72L970.99 158.73L974.79 158.73L975.01 160.72ZM989.04 170.33C987.46 170.33 986.24 169.81 985.37 168.78C984.49 167.75 984.05 166.3 984.05 164.42C984.05 162.54 984.49 161.08 985.37 160.05C986.24 159.03 987.46 158.51 989.04 158.51C990.62 158.51 991.85 159.03 992.72 160.05C993.59 161.08 994.02 162.54 994.02 164.42C994.02 166.3 993.59 167.75 992.72 168.78C991.85 169.81 990.62 170.33 989.04 170.33ZM989.04 168.29C989.88 168.29 990.52 167.95 990.98 167.28C991.43 166.6 991.66 165.65 991.66 164.42C991.66 163.18 991.43 162.23 990.98 161.56C990.52 160.89 989.88 160.55 989.04 160.55C988.2 160.55 987.55 160.89 987.1 161.56C986.65 162.23 986.42 163.18 986.42 164.42C986.42 165.65 986.65 166.6 987.1 167.28C987.55 167.95 988.2 168.29 989.04 168.29ZM1003.63 170.33C1002.31 170.33 1001.36 169.97 1000.77 169.25C1000.18 168.54 999.89 167.39 999.89 165.82L999.89 154L1002.17 154L1002.17 165.71C1002.17 166.31 1002.22 166.8 1002.34 167.18C1002.45 167.56 1002.68 167.84 1003.01 168.02C1003.34 168.2 1003.84 168.29 1004.49 168.29C1005.08 168.29 1005.84 168.15 1006.76 167.88L1007.02 169.88C1006.44 170.03 1005.89 170.15 1005.35 170.22C1004.82 170.29 1004.24 170.33 1003.63 170.33ZM996.54 156L996.54 154L1000.08 154L1000.08 156ZM1013.94 170.33C1013.08 170.33 1012.34 170.3 1011.73 170.25C1011.12 170.2 1010.56 170.12 1010.05 170.01L1010.31 167.94C1011.06 168.06 1011.73 168.14 1012.3 168.2C1012.88 168.26 1013.42 168.29 1013.94 168.29C1015.09 168.29 1015.93 168.17 1016.45 167.95C1016.97 167.72 1017.23 167.36 1017.23 166.87C1017.23 166.53 1017.14 166.27 1016.95 166.1C1016.77 165.93 1016.49 165.8 1016.11 165.71L1013.49 165.04C1012.36 164.76 1011.54 164.4 1011.01 163.98C1010.49 163.56 1010.22 162.92 1010.22 162.06C1010.22 160.81 1010.7 159.91 1011.66 159.35C1012.61 158.79 1014.15 158.51 1016.28 158.51C1016.83 158.51 1017.35 158.53 1017.82 158.56C1018.3 158.59 1018.79 158.65 1019.29 158.73L1019.05 160.7C1018.47 160.65 1017.96 160.61 1017.52 160.59C1017.07 160.56 1016.64 160.55 1016.22 160.55C1014.94 160.55 1014.02 160.66 1013.45 160.88C1012.87 161.1 1012.59 161.46 1012.59 161.95C1012.59 162.28 1012.7 162.52 1012.94 162.66C1013.18 162.81 1013.54 162.94 1014.03 163.07L1016.13 163.58C1017.33 163.87 1018.2 164.25 1018.76 164.73C1019.31 165.21 1019.59 165.91 1019.59 166.83C1019.59 168.05 1019.14 168.94 1018.25 169.5C1017.35 170.05 1015.92 170.33 1013.94 170.33Z"/>
<path fill="#858585" d="M845.59 205.37L845.59 194.95C845.59 191.01 847.39 189.04 850.98 189.04C851.8 189.04 852.58 189.11 853.34 189.26L853.11 191.23C852.66 191.18 852.26 191.14 851.92 191.12C851.57 191.09 851.24 191.08 850.92 191.08C848.88 191.08 847.87 192.34 847.87 194.84L847.87 205.37ZM842 198.5L842 196.5L852.53 196.5L852.53 198.5ZM860.61 205.59C859.03 205.59 857.81 205.07 856.93 204.04C856.06 203.01 855.62 201.55 855.62 199.68C855.62 197.79 856.06 196.34 856.93 195.31C857.81 194.28 859.03 193.77 860.61 193.77C862.19 193.77 863.41 194.28 864.28 195.31C865.15 196.34 865.59 197.79 865.59 199.68C865.59 201.55 865.15 203.01 864.28 204.04C863.41 205.07 862.19 205.59 860.61 205.59ZM860.61 203.54C861.44 203.54 862.09 203.21 862.54 202.54C863 201.86 863.23 200.91 863.23 199.68C863.23 198.44 863 197.48 862.54 196.81C862.09 196.15 861.44 195.81 860.61 195.81C859.77 195.81 859.12 196.15 858.67 196.81C858.21 197.48 857.98 198.44 857.98 199.68C857.98 200.91 858.21 201.86 858.67 202.54C859.12 203.21 859.77 203.54 860.61 203.54ZM872.72 200.47L872.06 196.91L872.94 196.91C873.07 194.82 874.11 193.77 876.07 193.77C877.25 193.77 878.1 194.11 878.63 194.78C879.16 195.45 879.43 196.54 879.43 198.04L877.17 198.04C877.17 197.21 877.05 196.62 876.8 196.25C876.55 195.89 876.15 195.7 875.6 195.7C874.63 195.7 873.91 196.12 873.44 196.94C872.96 197.77 872.72 198.95 872.72 200.47ZM867.91 205.37L867.91 203.37L875.52 203.37L875.52 205.37ZM870.45 205.37L870.45 193.98L872.29 193.98L872.72 197.25L872.72 205.37ZM868.34 195.98L868.34 193.98L872.14 193.98L872.36 195.98ZM900.57 205.37L899.23 196.33L899.06 196.33L898.13 193.98L900.21 193.98L901.55 203.65L901.75 203.65L902.71 193.98L904.97 193.98L903.36 205.37ZM894.87 205.37L893.58 193.98L895.73 193.98L896.59 203.65L896.79 203.65L898.13 193.98L900.21 193.98L899.26 196.33L899.11 196.33L897.77 205.37ZM911.78 205.37L911.78 194.63L914.06 194.63L914.06 205.37ZM907.44 205.37L907.44 203.37L912 203.37L912 205.37ZM913.84 205.37L913.84 203.37L917.56 203.37L917.56 205.37ZM908.09 195.98L908.09 193.98L914.06 193.98L914.06 195.98ZM912.84 192.18C912.41 192.18 912.03 192.02 911.72 191.71C911.41 191.4 911.25 191.03 911.25 190.59C911.25 190.15 911.41 189.77 911.72 189.46C912.03 189.15 912.41 189 912.84 189C913.29 189 913.66 189.15 913.97 189.46C914.28 189.77 914.43 190.15 914.43 190.59C914.43 191.03 914.28 191.4 913.97 191.71C913.66 192.02 913.29 192.18 912.84 192.18ZM927.42 205.37L927.42 197.96C927.42 197.27 927.24 196.74 926.88 196.37C926.53 196 926.03 195.81 925.38 195.81C923.59 195.81 922.7 196.86 922.7 198.97L922.03 196.05L922.91 196.05C922.97 195.28 923.25 194.71 923.75 194.33C924.24 193.96 924.97 193.77 925.92 193.77C927.12 193.77 928.05 194.13 928.71 194.87C929.37 195.6 929.7 196.63 929.7 197.96L929.7 205.37ZM920.42 205.37L920.42 193.98L922.48 193.98L922.7 196.39L922.7 205.37ZM937.08 205.59C935.59 205.59 934.46 205.1 933.69 204.11C932.92 203.13 932.54 201.69 932.54 199.79C932.54 197.81 932.92 196.31 933.69 195.29C934.46 194.28 935.59 193.77 937.08 193.77C937.93 193.77 938.62 193.97 939.16 194.37C939.69 194.77 940 195.33 940.1 196.05L940.98 196.05L940.31 199.29C940.31 198.12 940.08 197.22 939.62 196.62C939.16 196.01 938.48 195.7 937.58 195.7C936.67 195.7 935.97 196.05 935.5 196.73C935.03 197.42 934.79 198.44 934.79 199.79C934.79 201.06 935.03 202.02 935.5 202.67C935.97 203.33 936.67 203.65 937.58 203.65C938.48 203.65 939.16 203.35 939.62 202.74C940.08 202.13 940.31 201.24 940.31 200.06L941.09 203.31L940.1 203.31C940.03 204.02 939.72 204.58 939.19 204.98C938.66 205.39 937.95 205.59 937.08 205.59ZM940.55 205.48L940.31 203.24L940.31 189.26L942.59 189.26L942.59 205.37ZM950.84 205.59C949.26 205.59 948.04 205.07 947.17 204.04C946.29 203.01 945.86 201.55 945.86 199.68C945.86 197.79 946.29 196.34 947.17 195.31C948.04 194.28 949.26 193.77 950.84 193.77C952.42 193.77 953.65 194.28 954.52 195.31C955.39 196.34 955.82 197.79 955.82 199.68C955.82 201.55 955.39 203.01 954.52 204.04C953.65 205.07 952.42 205.59 950.84 205.59ZM950.84 203.54C951.68 203.54 952.32 203.21 952.78 202.54C953.23 201.86 953.46 200.91 953.46 199.68C953.46 198.44 953.23 197.48 952.78 196.81C952.32 196.15 951.68 195.81 950.84 195.81C950 195.81 949.36 196.15 948.9 196.81C948.45 197.48 948.22 198.44 948.22 199.68C948.22 200.91 948.45 201.86 948.9 202.54C949.36 203.21 950 203.54 950.84 203.54ZM965.02 205.37L963.69 196.33L963.52 196.33L962.58 193.98L964.67 193.98L966.01 203.65L966.2 203.65L967.17 193.98L969.42 193.98L967.81 205.37ZM959.33 205.37L958.04 193.98L960.19 193.98L961.04 203.65L961.24 203.65L962.58 193.98L964.67 193.98L963.71 196.33L963.56 196.33L962.23 205.37ZM975.74 205.59C974.88 205.59 974.15 205.56 973.53 205.51C972.92 205.46 972.36 205.38 971.85 205.26L972.11 203.2C972.86 203.32 973.53 203.4 974.1 203.46C974.68 203.52 975.22 203.54 975.74 203.54C976.89 203.54 977.73 203.43 978.25 203.21C978.77 202.98 979.03 202.62 979.03 202.13C979.03 201.78 978.94 201.53 978.75 201.36C978.57 201.19 978.29 201.06 977.91 200.97L975.29 200.3C974.16 200.01 973.34 199.66 972.81 199.24C972.29 198.81 972.02 198.17 972.02 197.31C972.02 196.07 972.5 195.17 973.46 194.61C974.41 194.05 975.96 193.77 978.08 193.77C978.63 193.77 979.15 193.79 979.62 193.82C980.1 193.85 980.59 193.91 981.09 193.98L980.85 195.96C980.27 195.9 979.76 195.86 979.32 195.84C978.87 195.82 978.44 195.81 978.02 195.81C976.74 195.81 975.82 195.92 975.25 196.14C974.67 196.36 974.39 196.71 974.39 197.21C974.39 197.54 974.5 197.77 974.74 197.92C974.98 198.07 975.34 198.2 975.83 198.32L977.93 198.84C979.13 199.13 980 199.51 980.56 199.99C981.11 200.47 981.39 201.17 981.39 202.08C981.39 203.31 980.94 204.2 980.05 204.75C979.15 205.31 977.72 205.59 975.74 205.59ZM989.51 205.59C989.07 205.59 988.7 205.43 988.39 205.12C988.08 204.81 987.92 204.43 987.92 204C987.92 203.55 988.08 203.18 988.39 202.87C988.7 202.56 989.07 202.41 989.51 202.41C989.96 202.41 990.33 202.56 990.64 202.87C990.95 203.18 991.1 203.55 991.1 204C991.1 204.43 990.95 204.81 990.64 205.12C990.33 205.43 989.96 205.59 989.51 205.59Z"/>
</svg>